HIERARCHY
ROOT root
{
	OFFSET	0	13.1	24.9
	CHANNELS 6  Xposition Yposition Zposition Xrotation Yrotation Zrotation
	JOINT spine_1
	{
		OFFSET	0	9.99999	0
		CHANNELS 3  Xrotation Yrotation Zrotation
		JOINT spine_2
		{
			OFFSET	0	112	-10
			CHANNELS 3  Xrotation Yrotation Zrotation
			JOINT spine_3
			{
				OFFSET	0	206.5	19.3
				CHANNELS 3  Xrotation Yrotation Zrotation
				JOINT spine_4
				{
					OFFSET	0	110.4	14.6
					CHANNELS 3  Xrotation Yrotation Zrotation
					JOINT neck_1
					{
						OFFSET	0	71.8	-50.3
						CHANNELS 3  Xrotation Yrotation Zrotation
						JOINT neck_2
						{
							OFFSET	0	86.2	-25.8
							CHANNELS 3  Xrotation Yrotation Zrotation
							JOINT head_ee
							{
								OFFSET	0	179.8	-8.7
								CHANNELS 3  Xrotation Yrotation Zrotation
								End Site
								{
									OFFSET	1	0	0
								}
							}
						}
					}
					JOINT left_clavicle
					{
						OFFSET	-43.2	22.4	-70.8
						CHANNELS 3  Xrotation Yrotation Zrotation
						JOINT left_shoulder
						{
							OFFSET	-93.9	-5.79999	48.7
							CHANNELS 3  Xrotation Yrotation Zrotation
							JOINT left_elbow
							{
								OFFSET	-291.4	-30.8	15.2
								CHANNELS 3  Xrotation Yrotation Zrotation
								JOINT left_lowarm_twist
								{
									OFFSET	-110.7	-3.89999	13.6
									CHANNELS 3  Xrotation Yrotation Zrotation
									JOINT left_hand
									{
										OFFSET	-110.7	-3.89999	13.6
										CHANNELS 3  Xrotation Yrotation Zrotation
										JOINT left_ee
										{
											OFFSET	-80.8	-5.10001	12.1
											CHANNELS 3  Xrotation Yrotation Zrotation
											End Site
											{
												OFFSET	1	0	0
											}
										}
									}
								}
							}
						}
					}
					JOINT right_clavicle
					{
						OFFSET	43.2	22.4	-70.8
						CHANNELS 3  Xrotation Yrotation Zrotation
						JOINT right_shoulder
						{
							OFFSET	93.9	-5.79999	48.7
							CHANNELS 3  Xrotation Yrotation Zrotation
							JOINT right_elbow
							{
								OFFSET	291.4	-30.8	15.2
								CHANNELS 3  Xrotation Yrotation Zrotation
								JOINT right_lowarm_twist
								{
									OFFSET	110.7	-3.89999	13.6
									CHANNELS 3  Xrotation Yrotation Zrotation
									JOINT right_hand
									{
										OFFSET	110.7	-3.89999	13.6
										CHANNELS 3  Xrotation Yrotation Zrotation
										JOINT right_ee
										{
											OFFSET	80.8	-5.10001	12.1
											CHANNELS 3  Xrotation Yrotation Zrotation
											End Site
											{
												OFFSET	1	0	0
											}
										}
									}
								}
							}
						}
					}
				}
			}
		}
	}
	JOINT left_hip
	{
		OFFSET	-82.8	-127.5	0.300001
		CHANNELS 3  Xrotation Yrotation Zrotation
		JOINT left_knee
		{
			OFFSET	-28.2	-396.7	2.2
			CHANNELS 3  Xrotation Yrotation Zrotation
			JOINT left_ankle
			{
				OFFSET	-11.7	-411.3	35.4
				CHANNELS 3  Xrotation Yrotation Zrotation
				JOINT left_toes
				{
					OFFSET	0	-60	-88.6
					CHANNELS 3  Xrotation Yrotation Zrotation
					JOINT left_foot_ee
					{
						OFFSET	-22.5	-16.5	-42.2
						CHANNELS 3  Xrotation Yrotation Zrotation
						End Site
						{
							OFFSET	1	0	0
						}
					}
				}
			}
		}
	}
	JOINT right_hip
	{
		OFFSET	82.8	-127.5	0.300001
		CHANNELS 3  Xrotation Yrotation Zrotation
		JOINT right_knee
		{
			OFFSET	28.2	-396.7	2.2
			CHANNELS 3  Xrotation Yrotation Zrotation
			JOINT right_ankle
			{
				OFFSET	11.7	-411.3	35.4
				CHANNELS 3  Xrotation Yrotation Zrotation
				JOINT right_toes
				{
					OFFSET	0	-60	-88.6
					CHANNELS 3  Xrotation Yrotation Zrotation
					JOINT right_foot_ee
					{
						OFFSET	22.5	-16.5	-42.2
						CHANNELS 3  Xrotation Yrotation Zrotation
						End Site
						{
							OFFSET	1	0	0
						}
					}
				}
			}
		}
	}
}
MOTION
Frames: 5
Frame Time: 0.02
1204.62 696.148 -1475.07 -17.5965 84.0064 12.0485 0.328666 0.350516 3.43531 0.335221 0.131341 3.45063 0.345716 -0.576901 3.40465 0.329544 -0.0322933 3.45297 -8.41712 2.85218 -7.55793 -8.25499 10.6301 -6.85021 -0.0 0.0 -0.0 -1.61892 6.24908 -2.18775 22.305 -21.6438 63.816 2.08522 -45.9233 0.883557 -17.4703 -0.93159 2.0217 -1.4984 7.18764 -6.76294 -0.0 0.0 -0.0 10.8074 6.83329 -21.5957 -25.8535 -4.20119 -69.3097 0.627785 17.2751 -0.0953652 10.0506 -0.244229 1.259 0.110329 -0.114273 -0.784707 0.0 0.0 0.0 -14.2531 9.48082 6.31417 -3.79895 0.137666 0.566663 38.5144 -14.1303 -5.00528 -30.3941 0.0 0.0 -0.0 0.0 -0.0 33.4934 15.7863 -0.697676 -2.60596 -0.0984908 -0.387767 -21.5495 -21.3213 -3.32138 18.2034 -0.0 -0.0 0.0 0.0 0.0 
1181.55 695.411 -1480.66 -20.5568 84.5081 14.5513 0.398776 0.422958 3.73005 0.406496 0.184919 3.74937 0.42157 -0.580647 3.70881 0.402378 0.011948 3.7539 -7.05466 2.12579 -7.7444 -6.86551 9.54012 -7.33408 -0.0 0.0 -0.0 -1.85446 6.75045 -2.53615 20.0484 -22.7098 64.3435 2.00326 -44.7751 0.825242 -18.11 -0.977144 2.08977 -1.14125 6.70784 -4.64451 -0.0 0.0 -0.0 10.9089 5.4556 -21.7887 -25.1389 -3.91694 -69.9076 0.643593 17.6833 -0.100113 10.1747 -0.245856 1.27477 0.21525 -0.903113 -1.81432 0.0 0.0 0.0 -14.4185 7.80801 5.78886 -7.23855 0.229649 1.08643 37.4041 -14.2949 -4.90745 -29.9449 0.0 0.0 -0.0 0.0 -0.0 32.5516 16.1897 -0.754745 -4.80253 -0.167729 -0.717745 -22.0523 -21.0618 -3.39583 18.5618 -0.0 -0.0 0.0 0.0 0.0 
1157.49 697.707 -1489.21 -17.3242 85.3213 11.1155 0.361433 0.543568 3.89256 0.369812 0.294968 3.9192 0.393481 -0.509144 3.8972 0.372309 0.112244 3.92867 -7.50269 1.58443 -8.51129 -7.28298 9.04064 -8.1693 -0.0 0.0 -0.0 -2.77767 9.36465 -3.73607 16.9626 -24.4873 64.5459 2.16024 -46.934 0.937911 -19.6708 -1.09147 2.25373 -0.318024 4.82763 -0.0699127 -0.0 0.0 -0.0 10.3916 3.63983 -20.6234 -24.1087 -3.63778 -71.3073 0.676257 18.5208 -0.110263 10.3667 -0.248305 1.29917 0.204683 -4.10778 -3.07085 0.0 0.0 0.0 -14.3759 6.90549 5.21651 -10.4076 0.286643 1.56931 36.6929 -13.3201 -4.81168 -30.1457 0.0 0.0 -0.0 0.0 -0.0 30.0032 16.5173 -0.282944 -3.80627 -0.137895 -0.567763 -20.0255 -20.8283 -3.07925 18.1251 -0.0 -0.0 0.0 0.0 0.0 
1134.36 700.46 -1500.88 -17.6133 86.0987 10.9287 0.295851 0.661128 4.02607 0.304776 0.403816 4.0599 0.337457 -0.434996 4.05668 0.31456 0.210592 4.07447 -7.93517 1.92308 -9.01962 -7.69356 9.98283 -8.56398 -0.0 0.0 -0.0 -3.12006 8.73812 -4.45658 13.1213 -23.8105 64.3853 2.07173 -45.7374 0.873877 -19.7406 -1.09668 2.26098 0.344575 1.83683 3.06256 -0.0 0.0 -0.0 10.8647 1.43027 -21.536 -23.264 -3.75808 -70.6381 0.662012 18.1565 -0.105781 10.903 -0.254714 1.36737 0.144238 -6.10404 -3.49217 0.0 0.0 0.0 -14.9979 4.91861 4.44894 -11.6885 0.302085 1.76525 37.7444 -12.2299 -4.88055 -31.2766 0.0 0.0 -0.0 0.0 -0.0 28.2693 16.5911 -0.0815766 -4.80076 -0.167678 -0.717479 -14.5942 -20.6767 -2.23531 18.5018 -0.0 -0.0 0.0 0.0 0.0 
1108.77 699.117 -1512.77 -2.6351 86.7844 -4.26764 0.33609 0.670686 4.11054 0.345395 0.407993 4.14481 0.379035 -0.445289 4.14097 0.355177 0.213705 4.15933 -7.80874 1.29099 -9.51845 -7.53893 9.17829 -9.20994 -0.0 0.0 -0.0 -3.84423 9.84708 -5.51506 9.82017 -24.7483 64.5527 1.97128 -44.3144 0.802815 -20.7512 -1.17321 2.36537 1.08276 0.126787 7.30258 -0.0 0.0 -0.0 11.0583 1.05085 -21.9254 -22.4032 -3.73106 -71.0002 0.638374 17.5487 -0.098534 11.118 -0.257105 1.39473 0.210185 -8.3271 -4.82403 0.0 0.0 0.0 -14.3607 3.48754 3.64282 -16.745 0.32019 2.5406 36.6567 -11.6247 -4.763 -33.1307 0.0 0.0 -0.0 0.0 -0.0 25.0789 16.6604 -0.112839 -5.39111 -0.184126 -0.806584 -9.37589 -20.319 -1.42593 18.0967 -0.0 -0.0 0.0 0.0 0.0 
